# xmcd
#
# Track frame offsets:
#	150
#	7794
#	17903
#	29962
#	41704
#	55246
#	70975
#	86558
#	99657
#	112270
#	126732
#	139886
#	153805
#	168113
#	181077
#	191759
#	204275
#	217991
#	230092
#	243562
#
# Disc length: 3402
#
# Revision: 2
# Processed by: cddbd v1.5.1PL0 Copyright (c) Steve Scherf et al.
# Submitted via: CDmax 2.0
# Normalized: r1:DSETVAR1,TDELIM( - )
#
DISCID=210d4814
DTITLE=Various Artist - The Best Of Boogie Woogie - CD 3
DYEAR=2003
DGENRE=Blues
TTITLE0=5th Street Blues - Cow Cow Davenport
TTITLE1=Randini's Boogie - Meade Lux Lewis
TTITLE2=Chicago Stomp - Jimmy Blythe
TTITLE3=Me Play With Your Poodle - Tampy Red and Big Maceo
TTITLE4=Albert's Special Boogie Woogie - Albert Ammons
TTITLE5=Birmingham Blues - James P. Johnson
TTITLE6=You So Dumb - Roosevelt Sykes
TTITLE7=Chicago Breakdown - Big Maceo
TTITLE8=Junker Blues - Champion Jack Dupree
TTITLE9=The Dirty Dozen - Speckled Red
TTITLE10=Whoopee Mama Blues - John Oscar
TTITLE11=State Street Jive - Cow Cow Davenport
TTITLE12=Sober Now - Pinetop Smith
TTITLE13=Gonna Pitch A Boogie Woogie - The Harlem Hamfats
TTITLE14=Bearcat Crawl - Meade Lux Lewis
TTITLE15=Rhumboogie - Bob Zurke
TTITLE16=Central Avenue Breakdown - Lionel Hampton
TTITLE17=Yancey's Buggle Call - Jimmy Yancey
TTITLE18=The Dirty Dozen No.2 - Speckled Red
TTITLE19=Shreveport Blues - Little Brother Montgomery
EXTD=
EXTT0=(Davenport)
EXTT1=(Lewis)
EXTT2=(Blythe)
EXTT3=(Whittaker)
EXTT4=(Ammons)
EXTT5=(Johnson)
EXTT6=(Sykes)
EXTT7=(Merriweather)
EXTT8=(Dupree)
EXTT9=(Perryman)
EXTT10=(Oscar)
EXTT11=(Davenport)
EXTT12=(Smith)
EXTT13=(McCoy)
EXTT14=(Lewis)
EXTT15=(Zurke/Miller)
EXTT16=(Hampton)
EXTT17=(Yancey)
EXTT18=(Perryman)
EXTT19=(Montgomery)
PLAYORDER=
